<mxfile host="Electron" modified="2024-04-16T20:18:28.071Z" agent="Mozilla/5.0 (Windows NT 10.0; Win64; x64) AppleWebKit/537.36 (KHTML, like Gecko) draw.io/24.2.5 Chrome/120.0.6099.109 Electron/28.1.0 Safari/537.36" etag="w6i1tNQfZXHH7ohDUepK" version="24.2.5" type="device">
  <diagram name="Page-1" id="HL01DGWwI2x1j01Yzxrk">
    <mxGraphModel dx="1434" dy="884" grid="1" gridSize="10" guides="1" tooltips="1" connect="1" arrows="1" fold="1" page="1" pageScale="1" pageWidth="850" pageHeight="1100" math="0" shadow="0">
      <root>
        <mxCell id="0" />
        <mxCell id="1" parent="0" />
        <mxCell id="jgmVSAQ6u0OmQu0wXPLE-1" value="Is the Model correct and does the Code exactly represent it?" style="rhombus;whiteSpace=wrap;html=1;fillColor=#fff2cc;strokeColor=#d6b656;" vertex="1" parent="1">
          <mxGeometry x="58.13" y="550" width="190" height="115" as="geometry" />
        </mxCell>
        <mxCell id="jgmVSAQ6u0OmQu0wXPLE-2" value="" style="rounded=0;html=1;jettySize=auto;orthogonalLoop=1;fontSize=11;endArrow=block;endFill=0;endSize=8;strokeWidth=1;shadow=0;labelBackgroundColor=none;edgeStyle=orthogonalEdgeStyle;entryX=0.5;entryY=0;entryDx=0;entryDy=0;exitX=0.5;exitY=1;exitDx=0;exitDy=0;" edge="1" parent="1" source="jgmVSAQ6u0OmQu0wXPLE-14" target="jgmVSAQ6u0OmQu0wXPLE-1">
          <mxGeometry relative="1" as="geometry">
            <mxPoint x="398.37" y="525" as="sourcePoint" />
            <mxPoint x="398.37" y="545" as="targetPoint" />
          </mxGeometry>
        </mxCell>
        <mxCell id="jgmVSAQ6u0OmQu0wXPLE-3" value="" style="rounded=0;html=1;jettySize=auto;orthogonalLoop=1;fontSize=11;endArrow=block;endFill=0;endSize=8;strokeWidth=1;shadow=0;labelBackgroundColor=none;edgeStyle=orthogonalEdgeStyle;entryX=0.49;entryY=-0.005;entryDx=0;entryDy=0;exitX=1;exitY=0.5;exitDx=0;exitDy=0;entryPerimeter=0;" edge="1" parent="1" source="jgmVSAQ6u0OmQu0wXPLE-1" target="jgmVSAQ6u0OmQu0wXPLE-6">
          <mxGeometry relative="1" as="geometry">
            <mxPoint x="238.12" y="615" as="sourcePoint" />
            <mxPoint x="311.25" y="625" as="targetPoint" />
            <Array as="points">
              <mxPoint x="310" y="608" />
            </Array>
          </mxGeometry>
        </mxCell>
        <mxCell id="jgmVSAQ6u0OmQu0wXPLE-4" value="No" style="edgeLabel;html=1;align=center;verticalAlign=middle;resizable=0;points=[];" vertex="1" connectable="0" parent="jgmVSAQ6u0OmQu0wXPLE-3">
          <mxGeometry x="-0.0089" y="1" relative="1" as="geometry">
            <mxPoint x="-11.489999999999998" y="0.98" as="offset" />
          </mxGeometry>
        </mxCell>
        <mxCell id="jgmVSAQ6u0OmQu0wXPLE-5" value="Does the Code exactly represent the Model?" style="rhombus;whiteSpace=wrap;html=1;fillColor=#fff2cc;strokeColor=#d6b656;" vertex="1" parent="1">
          <mxGeometry x="394" y="745" width="150" height="80" as="geometry" />
        </mxCell>
        <mxCell id="jgmVSAQ6u0OmQu0wXPLE-6" value="Try running the Code" style="rounded=1;whiteSpace=wrap;html=1;fontSize=12;glass=0;strokeWidth=1;shadow=0;fillColor=#dae8fc;strokeColor=#6c8ebf;" vertex="1" parent="1">
          <mxGeometry x="251.25" y="625" width="120" height="40" as="geometry" />
        </mxCell>
        <mxCell id="jgmVSAQ6u0OmQu0wXPLE-7" value="Is the Model correct?" style="rhombus;whiteSpace=wrap;html=1;fillColor=#fff2cc;strokeColor=#d6b656;" vertex="1" parent="1">
          <mxGeometry x="236.25" y="685" width="150" height="80" as="geometry" />
        </mxCell>
        <mxCell id="jgmVSAQ6u0OmQu0wXPLE-8" value="Write code that exactly represents the generated Model&amp;nbsp; and run it" style="rounded=1;whiteSpace=wrap;html=1;fontSize=12;glass=0;strokeWidth=1;shadow=0;fillColor=#fff2cc;strokeColor=#d6b656;" vertex="1" parent="1">
          <mxGeometry x="525" y="808" width="120" height="70" as="geometry" />
        </mxCell>
        <mxCell id="jgmVSAQ6u0OmQu0wXPLE-9" value="" style="rounded=0;html=1;jettySize=auto;orthogonalLoop=1;fontSize=11;endArrow=block;endFill=0;endSize=8;strokeWidth=1;shadow=0;labelBackgroundColor=none;edgeStyle=orthogonalEdgeStyle;entryX=0.5;entryY=0;entryDx=0;entryDy=0;exitX=0.5;exitY=1;exitDx=0;exitDy=0;" edge="1" parent="1" source="jgmVSAQ6u0OmQu0wXPLE-6" target="jgmVSAQ6u0OmQu0wXPLE-7">
          <mxGeometry relative="1" as="geometry">
            <mxPoint x="310" y="668" as="sourcePoint" />
            <mxPoint x="309.875" y="683" as="targetPoint" />
            <Array as="points" />
          </mxGeometry>
        </mxCell>
        <mxCell id="jgmVSAQ6u0OmQu0wXPLE-10" value="" style="rounded=0;html=1;jettySize=auto;orthogonalLoop=1;fontSize=11;endArrow=block;endFill=0;endSize=8;strokeWidth=1;shadow=0;labelBackgroundColor=none;edgeStyle=orthogonalEdgeStyle;entryX=0.5;entryY=0;entryDx=0;entryDy=0;exitX=1;exitY=0.5;exitDx=0;exitDy=0;" edge="1" parent="1" source="jgmVSAQ6u0OmQu0wXPLE-7" target="jgmVSAQ6u0OmQu0wXPLE-5">
          <mxGeometry relative="1" as="geometry">
            <mxPoint x="394" y="722.5" as="sourcePoint" />
            <mxPoint x="467.75" y="745" as="targetPoint" />
            <Array as="points">
              <mxPoint x="469" y="725" />
            </Array>
          </mxGeometry>
        </mxCell>
        <mxCell id="jgmVSAQ6u0OmQu0wXPLE-11" value="No" style="edgeLabel;html=1;align=center;verticalAlign=middle;resizable=0;points=[];" vertex="1" connectable="0" parent="jgmVSAQ6u0OmQu0wXPLE-10">
          <mxGeometry x="-0.0089" y="1" relative="1" as="geometry">
            <mxPoint x="-24.58" y="1" as="offset" />
          </mxGeometry>
        </mxCell>
        <mxCell id="jgmVSAQ6u0OmQu0wXPLE-12" value="" style="rounded=0;html=1;jettySize=auto;orthogonalLoop=1;fontSize=11;endArrow=block;endFill=0;endSize=8;strokeWidth=1;shadow=0;labelBackgroundColor=none;edgeStyle=orthogonalEdgeStyle;exitX=1;exitY=0.5;exitDx=0;exitDy=0;entryX=0.501;entryY=0.016;entryDx=0;entryDy=0;entryPerimeter=0;" edge="1" parent="1" source="jgmVSAQ6u0OmQu0wXPLE-5" target="jgmVSAQ6u0OmQu0wXPLE-8">
          <mxGeometry relative="1" as="geometry">
            <mxPoint x="545" y="785" as="sourcePoint" />
            <mxPoint x="585" y="845" as="targetPoint" />
            <Array as="points">
              <mxPoint x="585" y="785" />
            </Array>
          </mxGeometry>
        </mxCell>
        <mxCell id="jgmVSAQ6u0OmQu0wXPLE-13" value="No" style="edgeLabel;html=1;align=center;verticalAlign=middle;resizable=0;points=[];" vertex="1" connectable="0" parent="jgmVSAQ6u0OmQu0wXPLE-12">
          <mxGeometry x="-0.0089" y="1" relative="1" as="geometry">
            <mxPoint x="-16" y="1" as="offset" />
          </mxGeometry>
        </mxCell>
        <mxCell id="jgmVSAQ6u0OmQu0wXPLE-14" value="Code: &lt;br&gt;With the Model as prompt, ask the LLM to write code for the solver.&amp;nbsp;" style="rounded=1;whiteSpace=wrap;html=1;fontSize=12;glass=0;strokeWidth=1;shadow=0;fillColor=#d5e8d4;strokeColor=#82b366;" vertex="1" parent="1">
          <mxGeometry x="88.13" y="450" width="130" height="85" as="geometry" />
        </mxCell>
        <mxCell id="jgmVSAQ6u0OmQu0wXPLE-15" value="Save results" style="rounded=1;whiteSpace=wrap;html=1;" vertex="1" parent="1">
          <mxGeometry x="530" y="898" width="115" height="40" as="geometry" />
        </mxCell>
        <mxCell id="jgmVSAQ6u0OmQu0wXPLE-16" value="" style="rounded=0;html=1;jettySize=auto;orthogonalLoop=1;fontSize=11;endArrow=block;endFill=0;endSize=8;strokeWidth=1;shadow=0;labelBackgroundColor=none;edgeStyle=orthogonalEdgeStyle;exitX=0.5;exitY=1;exitDx=0;exitDy=0;" edge="1" parent="1" source="jgmVSAQ6u0OmQu0wXPLE-1" target="jgmVSAQ6u0OmQu0wXPLE-15">
          <mxGeometry relative="1" as="geometry">
            <mxPoint x="153.18000000000012" y="586.75" as="sourcePoint" />
            <mxPoint x="500" y="913" as="targetPoint" />
            <Array as="points">
              <mxPoint x="153" y="928" />
            </Array>
          </mxGeometry>
        </mxCell>
        <mxCell id="jgmVSAQ6u0OmQu0wXPLE-17" value="Yes" style="edgeLabel;html=1;align=center;verticalAlign=middle;resizable=0;points=[];" vertex="1" connectable="0" parent="jgmVSAQ6u0OmQu0wXPLE-16">
          <mxGeometry x="-0.0089" y="1" relative="1" as="geometry">
            <mxPoint x="-57" y="-244" as="offset" />
          </mxGeometry>
        </mxCell>
        <mxCell id="jgmVSAQ6u0OmQu0wXPLE-18" value="" style="rounded=0;html=1;jettySize=auto;orthogonalLoop=1;fontSize=11;endArrow=block;endFill=0;endSize=8;strokeWidth=1;shadow=0;labelBackgroundColor=none;edgeStyle=orthogonalEdgeStyle;exitX=0.5;exitY=1;exitDx=0;exitDy=0;entryX=0;entryY=0.5;entryDx=0;entryDy=0;" edge="1" parent="1" source="jgmVSAQ6u0OmQu0wXPLE-7" target="jgmVSAQ6u0OmQu0wXPLE-15">
          <mxGeometry relative="1" as="geometry">
            <mxPoint x="280" y="776" as="sourcePoint" />
            <mxPoint x="525" y="914.0000000000005" as="targetPoint" />
            <Array as="points">
              <mxPoint x="311" y="918" />
            </Array>
          </mxGeometry>
        </mxCell>
        <mxCell id="jgmVSAQ6u0OmQu0wXPLE-19" value="" style="rounded=0;html=1;jettySize=auto;orthogonalLoop=1;fontSize=11;endArrow=block;endFill=0;endSize=8;strokeWidth=1;shadow=0;labelBackgroundColor=none;edgeStyle=orthogonalEdgeStyle;entryX=0;entryY=0.25;entryDx=0;entryDy=0;exitX=0.5;exitY=1;exitDx=0;exitDy=0;" edge="1" parent="1" source="jgmVSAQ6u0OmQu0wXPLE-5" target="jgmVSAQ6u0OmQu0wXPLE-15">
          <mxGeometry relative="1" as="geometry">
            <mxPoint x="245" y="653" as="sourcePoint" />
            <mxPoint x="540" y="903" as="targetPoint" />
            <Array as="points">
              <mxPoint x="469" y="908" />
            </Array>
          </mxGeometry>
        </mxCell>
        <mxCell id="jgmVSAQ6u0OmQu0wXPLE-20" value="" style="rounded=0;html=1;jettySize=auto;orthogonalLoop=1;fontSize=11;endArrow=block;endFill=0;endSize=8;strokeWidth=1;shadow=0;labelBackgroundColor=none;edgeStyle=orthogonalEdgeStyle;entryX=0.5;entryY=0;entryDx=0;entryDy=0;exitX=0.527;exitY=1.003;exitDx=0;exitDy=0;exitPerimeter=0;" edge="1" parent="1" source="jgmVSAQ6u0OmQu0wXPLE-8">
          <mxGeometry relative="1" as="geometry">
            <mxPoint x="587.0699999999999" y="883" as="sourcePoint" />
            <mxPoint x="587.0699999999999" y="898" as="targetPoint" />
            <Array as="points">
              <mxPoint x="587" y="878" />
            </Array>
          </mxGeometry>
        </mxCell>
        <mxCell id="jgmVSAQ6u0OmQu0wXPLE-21" value="Yes" style="edgeLabel;html=1;align=center;verticalAlign=middle;resizable=0;points=[];" vertex="1" connectable="0" parent="1">
          <mxGeometry x="309.99999999999983" y="785" as="geometry">
            <mxPoint as="offset" />
          </mxGeometry>
        </mxCell>
        <mxCell id="jgmVSAQ6u0OmQu0wXPLE-22" value="Yes" style="edgeLabel;html=1;align=center;verticalAlign=middle;resizable=0;points=[];" vertex="1" connectable="0" parent="1">
          <mxGeometry x="468.99999999999983" y="845" as="geometry" />
        </mxCell>
        <mxCell id="jgmVSAQ6u0OmQu0wXPLE-23" value="Input: Mathematical Model" style="ellipse;whiteSpace=wrap;html=1;" vertex="1" parent="1">
          <mxGeometry x="75.63" y="370" width="155" height="60" as="geometry" />
        </mxCell>
        <mxCell id="jgmVSAQ6u0OmQu0wXPLE-24" value="" style="rounded=0;html=1;jettySize=auto;orthogonalLoop=1;fontSize=11;endArrow=block;endFill=0;endSize=8;strokeWidth=1;shadow=0;labelBackgroundColor=none;edgeStyle=orthogonalEdgeStyle;entryX=0.5;entryY=0;entryDx=0;entryDy=0;exitX=0.499;exitY=1.022;exitDx=0;exitDy=0;exitPerimeter=0;" edge="1" parent="1" source="jgmVSAQ6u0OmQu0wXPLE-23">
          <mxGeometry relative="1" as="geometry">
            <mxPoint x="153.03" y="435" as="sourcePoint" />
            <mxPoint x="153.03" y="450" as="targetPoint" />
          </mxGeometry>
        </mxCell>
        <mxCell id="jgmVSAQ6u0OmQu0wXPLE-25" value="Legend" style="shape=table;startSize=30;container=1;collapsible=0;childLayout=tableLayout;strokeColor=default;fontSize=16;" vertex="1" parent="1">
          <mxGeometry x="20" y="950" width="670" height="70" as="geometry" />
        </mxCell>
        <mxCell id="jgmVSAQ6u0OmQu0wXPLE-26" value="" style="shape=tableRow;horizontal=0;startSize=0;swimlaneHead=0;swimlaneBody=0;strokeColor=inherit;top=0;left=0;bottom=0;right=0;collapsible=0;dropTarget=0;fillColor=none;points=[[0,0.5],[1,0.5]];portConstraint=eastwest;fontSize=16;" vertex="1" parent="jgmVSAQ6u0OmQu0wXPLE-25">
          <mxGeometry y="30" width="670" height="40" as="geometry" />
        </mxCell>
        <mxCell id="jgmVSAQ6u0OmQu0wXPLE-27" value="Done by LLM" style="shape=partialRectangle;html=1;whiteSpace=wrap;connectable=0;strokeColor=inherit;overflow=hidden;fillColor=none;top=0;left=0;bottom=0;right=0;pointerEvents=1;fontSize=16;" vertex="1" parent="jgmVSAQ6u0OmQu0wXPLE-26">
          <mxGeometry width="220" height="40" as="geometry">
            <mxRectangle width="220" height="40" as="alternateBounds" />
          </mxGeometry>
        </mxCell>
        <mxCell id="jgmVSAQ6u0OmQu0wXPLE-28" value="Done by code" style="shape=partialRectangle;html=1;whiteSpace=wrap;connectable=0;strokeColor=inherit;overflow=hidden;fillColor=none;top=0;left=0;bottom=0;right=0;pointerEvents=1;fontSize=16;" vertex="1" parent="jgmVSAQ6u0OmQu0wXPLE-26">
          <mxGeometry x="220" width="230" height="40" as="geometry">
            <mxRectangle width="230" height="40" as="alternateBounds" />
          </mxGeometry>
        </mxCell>
        <mxCell id="jgmVSAQ6u0OmQu0wXPLE-29" value="Done manually" style="shape=partialRectangle;html=1;whiteSpace=wrap;connectable=0;strokeColor=inherit;overflow=hidden;fillColor=none;top=0;left=0;bottom=0;right=0;pointerEvents=1;fontSize=16;" vertex="1" parent="jgmVSAQ6u0OmQu0wXPLE-26">
          <mxGeometry x="450" width="220" height="40" as="geometry">
            <mxRectangle width="220" height="40" as="alternateBounds" />
          </mxGeometry>
        </mxCell>
        <mxCell id="jgmVSAQ6u0OmQu0wXPLE-30" value="" style="rounded=0;whiteSpace=wrap;html=1;fillColor=#d5e8d4;strokeColor=#82b366;" vertex="1" parent="1">
          <mxGeometry x="30" y="990" width="20" height="20" as="geometry" />
        </mxCell>
        <mxCell id="jgmVSAQ6u0OmQu0wXPLE-31" value="" style="rounded=0;whiteSpace=wrap;html=1;fillColor=#dae8fc;strokeColor=#6c8ebf;" vertex="1" parent="1">
          <mxGeometry x="250" y="990" width="20" height="20" as="geometry" />
        </mxCell>
        <mxCell id="jgmVSAQ6u0OmQu0wXPLE-32" value="" style="rounded=0;whiteSpace=wrap;html=1;fillColor=#fff2cc;strokeColor=#d6b656;" vertex="1" parent="1">
          <mxGeometry x="480" y="990" width="20" height="20" as="geometry" />
        </mxCell>
      </root>
    </mxGraphModel>
  </diagram>
</mxfile>
